<svg xmlns="http://www.w3.org/2000/svg" width="64" height="64" viewBox="0 0 64 64">
    <g transform="translate(-832)">
        <rect width="64" height="64" rx="5" transform="translate(832)" style="fill:#b2fce4"/>
        <path data-name="Union 48" d="m884.229 36.795-1.716-.9-1.684-.9a1.543 1.543 0 0 1 0-2.758l1.684-.9 1.716-.918a1.807 1.807 0 0 1 1.694 0 1.559 1.559 0 0 1 .844 1.372v.237a.361.361 0 0 0 0 .177.348.348 0 0 0 .461.1l1.588-.844 1.588-.83.113-.1a.313.313 0 0 0-.113-.443l-1.588-.833-1.588-.844h-.188a.378.378 0 0 0-.233.1.307.307 0 0 0-.085.223v.476a.274.274 0 0 1 0 .148.325.325 0 0 1-.2.149.349.349 0 0 1-.252-.032l-.794-.415a.336.336 0 0 1-.155-.279v-.191a1.562 1.562 0 0 1 .844-1.372 1.8 1.8 0 0 1 1.694-.007l1.684.946 1.684.9a1.555 1.555 0 0 1 .51.563 1.477 1.477 0 0 1 .217 1.2 1.574 1.574 0 0 1-.759.981l-1.68.9-1.716.918a1.8 1.8 0 0 1-1.7-.007 1.567 1.567 0 0 1-.844-1.369v-.237a.361.361 0 0 0 0-.177.324.324 0 0 0-.205-.142.334.334 0 0 0-.256.039l-1.588.843-1.588.83-.109.1a.318.318 0 0 0 .174.415l1.588.829 1.588.844a.452.452 0 0 0 .191 0 .344.344 0 0 0 .23-.1.314.314 0 0 0 .085-.227v-.475a.308.308 0 0 1 0-.163.332.332 0 0 1 .194-.149.343.343 0 0 1 .252.032l.794.429a.325.325 0 0 1 .156.283v.191a1.559 1.559 0 0 1-.844 1.372 1.8 1.8 0 0 1-1.694.007zm-9.624.146 1.479-2.843-2.318-4.771h1.681l1.5 3.187 1.588-3.187h1.62l-3.956 7.613zm-14.1 0v-7.61h1.414v.7a2.451 2.451 0 0 1 1.84-.8 2.749 2.749 0 0 1 2.8 2.7v.1a2.593 2.593 0 0 1-.77 1.938 2.988 2.988 0 0 1-2.01.861 2.354 2.354 0 0 1-1.762-.727v2.843zm2.981-6.359a1.485 1.485 0 1 0 1.609 1.518v-.074a1.538 1.538 0 0 0-1.588-1.443zm-13.732 1.77v-.326a3.008 3.008 0 0 1 6 0 1.1 1.1 0 0 1 0 .34l-4.413.015a1.413 1.413 0 0 0 1.492 1.262 1.625 1.625 0 0 0 1.368-.7h1.493a2.84 2.84 0 0 1-2.893 1.882c-.068 0-.136.007-.2.007a2.784 2.784 0 0 1-2.848-2.481zm1.574-.815h2.9a1.357 1.357 0 0 0-1.443-1.109h-.067a1.383 1.383 0 0 0-1.391 1.107zm18.546 3.289a2.74 2.74 0 0 1-2.794-2.693v-.106a2.584 2.584 0 0 1 .766-1.936 2.993 2.993 0 0 1 2.01-.865 2.385 2.385 0 0 1 1.8.787v-.681h1.428v5.406h-1.382v-.713a2.381 2.381 0 0 1-1.8.8zm.212-4.2a1.481 1.481 0 1 0-.053 2.96h.078a1.539 1.539 0 0 0 1.588-1.481v-.074a1.54 1.54 0 0 0-1.584-1.4zm-31.3 4.2a2.742 2.742 0 0 1-2.779-2.711v-.089a2.584 2.584 0 0 1 .766-1.936 3 3 0 0 1 2.014-.865 2.4 2.4 0 0 1 1.808.787v-.681H842v5.406h-1.383v-.713a2.423 2.423 0 0 1-1.814.8zm.2-4.207a1.487 1.487 0 1 0 1.638 1.481v-.074a1.545 1.545 0 0 0-1.588-1.408zm9.5 4.161c-1.146 0-1.588-.475-1.588-1.584v-2.651h-1.907v4.235h-1.443v-4.235h-.812v-1.23h.812v-.727c0-1.109.571-1.481 1.776-1.481h.684v1.053h-.318c-.507 0-.7.177-.7.624v.546h1.907v-1.319h1.46v1.365h.9v1.17h-.9v2.339c0 .447.128.624.635.624h.287v1.272zm8.018-.042v-5.406h1.429v.532a1.478 1.478 0 0 1 1.255-.639 1.5 1.5 0 0 1 .62.121v1.393a1.95 1.95 0 0 0-1.035-.252.95.95 0 0 0-.79 1.05v3.2z"/>
    </g>
</svg>
