<svg xmlns="http://www.w3.org/2000/svg" width="64" height="64" viewBox="0 0 64 64">
    <g transform="translate(-767)">
        <rect width="64" height="64" rx="5" transform="translate(767)" style="fill:#ffb3c7"/>
        <path data-name="Path 1892" d="M45.177 7.86A1.354 1.354 0 1 0 46.5 9.214a1.339 1.339 0 0 0-1.323-1.354zm-4.356-1.047a1.912 1.912 0 1 0-1.911 1.854 1.883 1.883 0 0 0 1.911-1.854zm.007-3.6h2.109v7.2h-2.109v-.46a3.641 3.641 0 0 1-2.091.66 3.76 3.76 0 0 1-3.717-3.8 3.76 3.76 0 0 1 3.717-3.8 3.64 3.64 0 0 1 2.091.66v-.461zM23.95 4.15v-.938h-2.16v7.2h2.164v-3.36a1.969 1.969 0 0 1 2.037-1.744h.025v-2.1a2.606 2.606 0 0 0-2.067.938zm-5.379 2.663a1.912 1.912 0 1 0-1.911 1.854 1.883 1.883 0 0 0 1.911-1.854zm.007-3.6h2.109v7.2h-2.109v-.46a3.641 3.641 0 0 1-2.091.66 3.76 3.76 0 0 1-3.717-3.8 3.76 3.76 0 0 1 3.717-3.8 3.64 3.64 0 0 1 2.091.66v-.461zm12.695-.194A2.54 2.54 0 0 0 29.1 4.023v-.811H27v7.2h2.126V6.63A1.5 1.5 0 0 1 30.709 5c.927 0 1.46.566 1.46 1.617v3.8h2.107V5.834a2.815 2.815 0 0 0-3-2.816zM9.7 10.415h2.208V0H9.7v10.415zm-9.7 0h2.338V0H0zM8.176 0a8.382 8.382 0 0 1-2.391 5.913l3.231 4.505H6.129l-3.512-4.9.906-.694A6.028 6.028 0 0 0 5.889 0h2.287z" transform="translate(776.75 26.693)" style="fill:#0a0b09"/>
    </g>
</svg>
