<svg xmlns="http://www.w3.org/2000/svg" width="64" height="64" viewBox="0 0 64 64">
    <g transform="translate(-637)">
        <rect width="64" height="64" rx="5" transform="translate(637)" style="fill:#1c1c1c"/>
        <g data-name="master">
            <path d="M-671.254-266.507a9.806 9.806 0 0 1-9.68 9.927 9.806 9.806 0 0 1-9.68-9.927 9.806 9.806 0 0 1 9.68-9.927 9.805 9.805 0 0 1 9.68 9.927" transform="translate(1355.254 297.435)" style="fill:#f79f1a"/>
            <path d="M-464.25-266.507a9.806 9.806 0 0 1-9.68 9.927 9.806 9.806 0 0 1-9.68-9.927 9.806 9.806 0 0 1 9.68-9.927 9.806 9.806 0 0 1 9.68 9.927" transform="translate(1136.611 297.435)" style="fill:#ea001b"/>
            <path d="M-404.655-412.646a10 10 0 0 0-3.708 7.813 10 10 0 0 0 3.708 7.816 10.006 10.006 0 0 0 3.708-7.816 10.007 10.007 0 0 0-3.708-7.813" transform="translate(1073.156 435.76)" style="fill:#ff5f01"/>
            <path d="M-666.776-172.9v-.294h.116v-.06h-.294v.06h.116v.294zm.573 0v-.354h-.09l-.1.243-.1-.243h-.09v.354h.064v-.267l.1.23h.066l.1-.232v.267l.053.002z" transform="translate(1350.186 209.143)" style="fill:#f79f1a"/>
            <path data-name="Union 47" d="M13385.211 10885.582a.289.289 0 0 1-.078-.188.271.271 0 0 1 .078-.185.258.258 0 0 1 .191-.077.245.245 0 0 1 .185.077.258.258 0 0 1 .077.185.274.274 0 0 1-.077.188.267.267 0 0 1-.185.077.293.293 0 0 1-.191-.077zm.047-.333a.2.2 0 0 0-.058.145.207.207 0 0 0 .058.147.2.2 0 0 0 .285 0 .207.207 0 0 0 .058-.147.2.2 0 0 0-.058-.145.2.2 0 0 0-.141-.061.2.2 0 0 0-.144.061zm-18.047-.507v-1.32h-.48v-.552h.48v-.762h.592v.762h.894v.552h-.894v1.316s-.011.285.42.3a.717.717 0 0 0 .43-.172l.218.575a3.1 3.1 0 0 1-.766.194.838.838 0 0 1-.894-.893zm1.908-.534a1.326 1.326 0 0 1 1.317-1.388c1.318 0 1.183 1.565 1.182 1.565h-1.874a.743.743 0 0 0 .746.7 1.582 1.582 0 0 0 .749-.289l.248.447a2.451 2.451 0 0 1-1 .372 1.326 1.326 0 0 1-1.368-1.407zm1.236-.87a.6.6 0 0 0-.611.635h1.334a.626.626 0 0 0-.655-.635h-.046a.077.077 0 0 0-.022 0zm-6.259 1.888.239-.376a2.482 2.482 0 0 0 .84.231c.228 0 .607-.074.611-.31s-.639-.318-.639-.318-.964-.014-.964-.827c0-.514.48-.84 1.1-.84a3.381 3.381 0 0 1 1.021.323l-.265.43a3.315 3.315 0 0 0-.786-.222c-.229-.007-.508.1-.508.309 0 .559 1.606-.043 1.606 1.082 0 .735-.655.87-1.176.87a2.2 2.2 0 0 1-1.075-.352zm17.513-1.048a1.325 1.325 0 0 1 1.26-1.388 1.251 1.251 0 0 1 .854.406v-1.367h.544v3.665h-.541v-.269a1.411 1.411 0 0 1-.84.35 1.364 1.364 0 0 1-1.277-1.397zm.564.023a.8.8 0 1 0 .8-.877.84.84 0 0 0-.799.876zm-8.251-.017a1.3 1.3 0 0 1 1.371-1.371 1.888 1.888 0 0 1 .937.3l-.281.514a.77.77 0 0 0-.669-.272.8.8 0 0 0-.763.857.8.8 0 0 0 .77.866 1.135 1.135 0 0 0 .668-.278l.252.514a1.718 1.718 0 0 1-.846.266 1.391 1.391 0 0 1-1.438-1.395zm2.57-.007a1.325 1.325 0 0 1 1.256-1.388 1.254 1.254 0 0 1 .857.406v-.332h.54v2.627h-.537v-.266a1.4 1.4 0 0 1-.837.346 1.36 1.36 0 0 1-1.278-1.392zm.564.023a.8.8 0 1 0 .8-.877.84.84 0 0 0-.798.877zm-16.159-.023a1.328 1.328 0 0 1 1.26-1.388 1.263 1.263 0 0 1 .857.406v-.332h.54v2.627h-.54v-.266a1.416 1.416 0 0 1-.837.346 1.367 1.367 0 0 1-1.277-1.392zm.568.023a.8.8 0 1 0 .8-.877.84.84 0 0 0-.798.877zm23.985 1.313-.073-.091h-.024v.091h-.05v-.245h.11a.094.094 0 0 1 .071.023.066.066 0 0 1 .026.057.057.057 0 0 1-.02.047.122.122 0 0 1-.058.027l.077.091zm-.094-.131h.057a.051.051 0 0 0 .034-.011.028.028 0 0 0 .014-.023.033.033 0 0 0-.014-.026.078.078 0 0 0-.034-.007h-.057zm-5.566.107v-2.624h.537v.319a1.77 1.77 0 0 1 .756-.387 1.014 1.014 0 0 1 .37.084l-.179.511a.55.55 0 0 0-.288-.074.576.576 0 0 0-.655.528l.01 1.643zm-7.609 0v-2.624h.538v.319a1.77 1.77 0 0 1 .756-.387.99.99 0 0 1 .369.084l-.182.511a.529.529 0 0 0-.285-.074c-.646 0-.655.528-.655.528l.01 1.643zm-15.789 0v-2.624h.541v.319a1.773 1.773 0 0 1 .753-.387 1.187 1.187 0 0 1 .873.484 1.024 1.024 0 0 1 1.875.342v1.854h-.527v-1.632a.514.514 0 0 0-.571-.5.593.593 0 0 0-.646.5v1.629h-.551v-1.643a.562.562 0 0 0-.548-.518.58.58 0 0 0-.658.531l.011 1.643z" transform="translate(-12701.791 -10839.658)" style="fill:#fff"/>
        </g>
    </g>
</svg>
