<svg xmlns="http://www.w3.org/2000/svg" width="64" height="64" viewBox="0 0 64 64">
    <g transform="translate(-507)">
        <rect width="64" height="64" rx="5" transform="translate(507)" style="fill:#fff"/>
        <g data-name="PayPal">
            <path data-name="Path 1297" d="M23.294 3.54h-2.987a.415.415 0 0 0-.417.345l-1.2 7.548a.244.244 0 0 0 .054.2.252.252 0 0 0 .188.089h1.426a.415.415 0 0 0 .409-.345l.325-2.039a.415.415 0 0 1 .417-.345h.943a3.06 3.06 0 0 0 3.4-2.8 2.219 2.219 0 0 0-.384-1.9 2.757 2.757 0 0 0-2.177-.748zm.342 2.755c-.167 1.061-.984 1.061-1.768 1.061h-.459l.317-1.973a.249.249 0 0 1 .25-.214h.209c.542 0 1.051 0 1.31.3a.947.947 0 0 1 .142.822zm8.591-.033h-1.435a.249.249 0 0 0-.242.206l-.067.395-.1-.14A2.045 2.045 0 0 0 28.7 6.13a3.271 3.271 0 0 0-3.2 2.837 2.685 2.685 0 0 0 .525 2.171 2.245 2.245 0 0 0 1.81.715 2.714 2.714 0 0 0 1.977-.806l-.058.386a.244.244 0 0 0 .054.2.252.252 0 0 0 .188.089h1.285a.415.415 0 0 0 .417-.345l.767-4.835a.244.244 0 0 0-.058-.193.252.252 0 0 0-.184-.087zm-1.994 2.746a1.591 1.591 0 0 1-1.618 1.349 1.1 1.1 0 0 1-1.184-1.373 1.6 1.6 0 0 1 1.6-1.357 1.223 1.223 0 0 1 .959.386 1.2 1.2 0 0 1 .242.995zm9.617-2.746h-1.442a.419.419 0 0 0-.342.181L36.08 9.32l-.834-2.771a.417.417 0 0 0-.4-.288h-1.418a.251.251 0 0 0-.2.1.244.244 0 0 0-.035.218l1.585 4.588-1.493 2.072a.244.244 0 0 0-.015.256.251.251 0 0 0 .223.131h1.435a.419.419 0 0 0 .342-.173l4.779-6.808a.244.244 0 0 0 .017-.252.251.251 0 0 0-.217-.134z" transform="translate(507.896 24.37)" style="fill:#253b80"/>
            <path data-name="Path 1298" d="M48.852 3.538h-2.995a.415.415 0 0 0-.409.345l-1.209 7.548a.244.244 0 0 0 .057.2.252.252 0 0 0 .193.086h1.535a.291.291 0 0 0 .284-.247l.342-2.138a.415.415 0 0 1 .409-.345h.951a3.047 3.047 0 0 0 3.395-2.8 2.246 2.246 0 0 0-.375-1.9 2.757 2.757 0 0 0-2.177-.748zm.342 2.755c-.167 1.061-.984 1.061-1.777 1.061h-.45l.317-1.973a.249.249 0 0 1 .25-.214h.2c.542 0 1.051 0 1.318.3a.947.947 0 0 1 .142.822zm8.591-.033H56.35a.249.249 0 0 0-.242.206l-.067.395-.1-.14a2.053 2.053 0 0 0-1.693-.592 3.271 3.271 0 0 0-3.195 2.837 2.658 2.658 0 0 0 .534 2.171 2.239 2.239 0 0 0 1.8.715 2.767 2.767 0 0 0 1.985-.806l-.067.386a.244.244 0 0 0 .057.2.252.252 0 0 0 .194.086h1.285a.415.415 0 0 0 .409-.345l.776-4.835a.244.244 0 0 0-.058-.193.252.252 0 0 0-.184-.087zm-2 2.746a1.589 1.589 0 0 1-1.61 1.349 1.1 1.1 0 0 1-1.184-1.373 1.6 1.6 0 0 1 1.6-1.357 1.125 1.125 0 0 1 1.193 1.381zm3.685-5.262-1.226 7.688a.244.244 0 0 0 .054.2.252.252 0 0 0 .188.089h1.234a.411.411 0 0 0 .409-.345l1.209-7.557a.244.244 0 0 0-.054-.2.252.252 0 0 0-.184-.089h-1.388a.249.249 0 0 0-.242.214z" transform="translate(503.658 24.372)" style="fill:#179bd7"/>
            <path data-name="Path 1299" d="m3.271 12.652.229-1.431-.509-.008H.56L2.245.655A.141.141 0 0 1 2.387.54h4.1a3.663 3.663 0 0 1 2.786.83 1.874 1.874 0 0 1 .45.822 3.047 3.047 0 0 1 .008 1.143l-.008.033v.288l.225.132a1.608 1.608 0 0 1 .467.345 1.562 1.562 0 0 1 .375.839 3.569 3.569 0 0 1-.05 1.209 4.458 4.458 0 0 1-.5 1.373 2.836 2.836 0 0 1-.8.863 3.12 3.12 0 0 1-1.076.477 5.2 5.2 0 0 1-1.343.148H6.7a.978.978 0 0 0-.626.23.951.951 0 0 0-.325.567l-.025.132-.4 2.524-.017.09a.2.2 0 0 1-.025.058.068.068 0 0 1-.042.008H3.271z" transform="translate(510.904 24.903)" style="fill:#253b80"/>
            <path data-name="Path 1300" d="M10.606 4.02c-.008.074-.025.156-.033.23-.543 2.738-2.394 3.684-4.755 3.684h-1.2a.589.589 0 0 0-.584.485l-.609 3.856-.175 1.085a.3.3 0 0 0 .068.245.31.31 0 0 0 .232.109h2.135a.507.507 0 0 0 .509-.428l.017-.107.4-2.508.025-.14a.516.516 0 0 1 .509-.428h.317c2.069 0 3.687-.83 4.162-3.223a2.706 2.706 0 0 0-.424-2.416 2.041 2.041 0 0 0-.592-.444z" transform="translate(510.458 24.286)" style="fill:#179bd7"/>
            <path data-name="Path 1301" d="M10.2 3.707a4.315 4.315 0 0 0-.525-.115 6.775 6.775 0 0 0-1.056-.082H5.4a.507.507 0 0 0-.5.428l-.685 4.267-.025.123a.582.582 0 0 1 .584-.485h1.2c2.361 0 4.212-.946 4.746-3.684.017-.082.033-.164.042-.23a2.9 2.9 0 0 0-.442-.189l-.12-.033z" transform="translate(510.302 24.376)" style="fill:#222d65"/>
            <path data-name="Path 1302" d="M4.2 3.314a.507.507 0 0 1 .5-.428h3.22a6.082 6.082 0 0 1 1.059.082 4.314 4.314 0 0 1 .642.148 2.729 2.729 0 0 1 .45.189A2.562 2.562 0 0 0 9.518.978 4.127 4.127 0 0 0 6.39 0h-4.1a.589.589 0 0 0-.584.485L.009 11.158a.342.342 0 0 0 .077.279.352.352 0 0 0 .265.124h2.536l.634-3.98.679-4.267z" transform="translate(510.996 25)" style="fill:#253b80"/>
        </g>
    </g>
</svg>
