<svg xmlns="http://www.w3.org/2000/svg" width="64" height="64" viewBox="0 0 64 64">
    <g transform="translate(-572)">
        <rect width="64" height="64" rx="5" transform="translate(572)" style="fill:#1a1f71"/>
        <g data-name="visa">
            <path data-name="Path 654" d="m10.8 96.5 2.189-12.4h3.5L14.3 96.5z" transform="translate(586.332 -57.823)" style="fill:#fff"/>
            <path data-name="Path 655" d="M25.19 84.437a9.214 9.214 0 0 0-3.132-.526c-3.453 0-5.887 1.7-5.906 4.137-.02 1.854 1.751 2.853 3.064 3.4 1.361.571 1.751 1 1.751 1.555-.009.839-1.086 1.224-2.091 1.284a7.489 7.489 0 0 1-3.289-.658l-.449-.2-.49 2.806a11.494 11.494 0 0 0 3.94.668c3.674 0 6.059-1.68 6.085-4.281.013-1.426-.918-2.511-2.935-3.406-1.221-.579-1.97-.966-1.963-1.553 0-.522.635-1.078 2-1.078a7.616 7.616 0 0 1 2.627.479l.314.146.471-2.747" transform="translate(588.047 -57.91)" style="fill:#fff"/>
            <path data-name="Path 656" d="M31.073 84.072h-2.7a1.746 1.746 0 0 0-1.83 1.039l-5.192 11.474h3.67s.6-1.542.735-1.881h4.524c.105.428.438 1.853.438 1.876h3.244l-2.889-12.468m-4.311 7.981c.289-.721 1.394-3.5 1.394-3.5a9.133 9.133 0 0 0 .417-1.146l.236 1.079s.73 2.993.876 3.616h-2.923z" transform="translate(591.043 -57.836)" style="fill:#fff"/>
            <path data-name="Path 657" d="m11.5 84.07-3.424 8.539-.365-1.736a9.867 9.867 0 0 0-4.84-5.253L6 96.571h3.7l5.5-12.5h-3.7" transform="translate(582.782 -57.838)" style="fill:#fff"/>
            <path data-name="Path 658" d="M6.05 84.064H.415l-.044.267c4.384 1.022 7.3 3.648 8.464 6.709l-1.226-5.893c-.185-.884-.775-1.03-1.5-1.03" transform="translate(581.634 -57.84)" style="fill:#fff"/>
        </g>
    </g>
</svg>
